<svg width="13" height="15" viewBox="0 0 13 15" fill="none" xmlns="http://www.w3.org/2000/svg">
<path d="M9.87805 6.48973C10.1207 6.56439 10.354 6.66706 10.578 6.79773C10.802 6.92839 11.0354 7.11506 11.278 7.35773C11.5207 7.60039 11.726 7.90373 11.894 8.26773C12.062 8.63173 12.2067 9.07973 12.328 9.61173C12.4494 10.1437 12.5054 10.7597 12.496 11.4597C12.496 12.2624 12.2347 12.9484 11.712 13.5177C11.1894 14.0871 10.564 14.3717 9.83605 14.3717H3.15805C2.43005 14.3717 1.80471 14.0871 1.28205 13.5177C0.75938 12.9484 0.498047 12.2624 0.498047 11.4597C0.498047 10.7784 0.554047 10.1624 0.666047 9.61173C0.778047 9.06106 0.922714 8.61306 1.10005 8.26773C1.27738 7.92239 1.48271 7.61906 1.71605 7.35773C1.94938 7.0964 2.18271 6.90973 2.41605 6.79773C2.64938 6.68573 2.88271 6.58306 3.11605 6.48973C2.70538 5.84573 2.50005 5.14106 2.50005 4.37573C2.50005 3.83439 2.60738 3.31639 2.82205 2.82173C3.03671 2.32706 3.32138 1.90239 3.67605 1.54773C4.03071 1.19306 4.45538 0.908395 4.95005 0.693728C5.44471 0.479062 5.96271 0.371728 6.50405 0.371728C7.04538 0.371728 7.55871 0.479062 8.04405 0.693728C8.52938 0.908395 8.95871 1.19306 9.33205 1.54773C9.70538 1.90239 9.99005 2.32706 10.186 2.82173C10.382 3.31639 10.4847 3.83439 10.494 4.37573C10.494 5.14106 10.2887 5.84573 9.87805 6.48973ZM6.50405 1.36573C5.67338 1.36573 4.96405 1.65973 4.37605 2.24773C3.78805 2.83573 3.49405 3.54506 3.49405 4.37573C3.49405 5.20639 3.78805 5.91106 4.37605 6.48973C4.96405 7.06839 5.67338 7.36239 6.50405 7.37173C7.33471 7.38106 8.03938 7.08706 8.61805 6.48973C9.19671 5.89239 9.49071 5.18773 9.50005 4.37573C9.50938 3.56373 9.21538 2.85439 8.61805 2.24773C8.02071 1.64106 7.31605 1.34706 6.50405 1.36573ZM9.83605 13.3777C10.2934 13.3777 10.6854 13.1911 11.012 12.8177C11.3387 12.4444 11.502 11.9917 11.502 11.4597C11.502 10.2091 11.2967 9.2244 10.886 8.50573C10.4754 7.78706 9.88738 7.41373 9.12205 7.38573C8.36605 8.03906 7.49338 8.36573 6.50405 8.36573C5.51471 8.36573 4.63738 8.03906 3.87205 7.38573C3.10671 7.41373 2.51871 7.78706 2.10805 8.50573C1.69738 9.2244 1.49205 10.2091 1.49205 11.4597C1.49205 11.9917 1.65538 12.4444 1.98205 12.8177C2.30871 13.1911 2.70071 13.3777 3.15805 13.3777H9.83605Z" fill="white"/>
</svg>
